<svg width="120" height="120" viewBox="0 0 120 120" fill="none" xmlns="http://www.w3.org/2000/svg">
<g filter="url(#filter0_i_303_726)">
<path d="M46.3259 42.0872C46.3629 41.8674 46.3822 41.6412 46.3822 41.4103C46.3822 39.2507 44.6922 37.5 42.6074 37.5C41.0576 37.5 39.7259 38.4676 39.1446 39.8514C38.6736 39.4302 38.0625 39.1759 37.3946 39.1759C35.9055 39.1759 34.6983 40.4403 34.6983 42C34.6983 42.0869 34.7021 42.1728 34.7094 42.2576C33.9932 42.6211 33.5 43.3836 33.5 44.2655C33.5 45.4996 34.4657 46.5 35.657 46.5H45.843C47.0343 46.5 48 45.4996 48 44.2655C48 43.2034 47.2847 42.3144 46.3259 42.0872Z" fill="url(#paint0_linear_303_726)"/>
</g>
<g filter="url(#filter1_i_303_726)">
<path d="M81.3799 66.3781C81.5485 65.4253 81.6364 64.4452 81.6364 63.4448C81.6364 54.0865 73.9438 46.5 64.4545 46.5C57.4001 46.5 51.3386 50.6928 48.6925 56.6894C46.5488 54.8641 43.7671 53.7621 40.7273 53.7621C33.9492 53.7621 28.4545 59.2412 28.4545 66C28.4545 66.3764 28.4716 66.7488 28.5049 67.1165C25.2448 68.6913 23 71.9957 23 75.8172C23 81.1649 27.3957 85.5 32.8182 85.5H79.1818C84.6043 85.5 89 81.1649 89 75.8172C89 71.2148 85.7441 67.3624 81.3799 66.3781Z" fill="url(#paint1_linear_303_726)"/>
</g>
<g filter="url(#filter2_i_303_726)">
<path d="M91.5909 41.5138C91.5909 42.1935 91.5323 42.8595 91.4199 43.5069C94.3294 44.1757 96.5 46.7934 96.5 49.9207C96.5 53.5543 93.5695 56.5 89.9545 56.5H80.1317C77.4424 50.6047 71.4345 46.5 64.4545 46.5C59.8664 46.5 55.6983 48.2736 52.6166 51.1635C52.5401 50.761 52.5 50.3456 52.5 49.9207C52.5 47.324 53.9965 45.0787 56.17 44.0086C56.1477 43.7588 56.1364 43.5057 56.1364 43.25C56.1364 38.6575 59.7995 34.9345 64.3182 34.9345C66.3447 34.9345 68.1992 35.6833 69.6283 36.9236C71.3924 32.8489 75.4334 30 80.1364 30C86.4625 30 91.5909 35.1549 91.5909 41.5138Z" fill="url(#paint2_linear_303_726)"/>
</g>
<g filter="url(#filter3_i_303_726)">
<path d="M58.6973 37.2073C59.5524 35.0831 60.6783 33.0553 62.0594 31.1802C58.3686 31.5924 54.6901 32.7606 51.2544 34.7442C43.7763 39.0617 39.0681 46.3069 37.7899 54.1147C38.731 53.8842 39.7148 53.762 40.7273 53.762C43.7671 53.762 46.5488 54.864 48.6924 56.6893C49.6176 54.5928 50.9601 52.7168 52.6166 51.1634C52.5401 50.7609 52.5 50.3455 52.5 49.9206C52.5 47.3239 53.9965 45.0786 56.1699 44.0085C56.1477 43.7587 56.1364 43.5056 56.1364 43.2499C56.1364 40.8697 57.1203 38.7231 58.6973 37.2073Z" fill="url(#paint3_linear_303_726)"/>
</g>
<defs>
<filter id="filter0_i_303_726" x="33.5" y="37.5" width="14.5" height="19" filterUnits="userSpaceOnUse" color-interpolation-filters="sRGB">
<feFlood flood-opacity="0" result="BackgroundImageFix"/>
<feBlend mode="normal" in="SourceGraphic" in2="BackgroundImageFix" result="shape"/>
<feColorMatrix in="SourceAlpha" type="matrix" values="0 0 0 0 0 0 0 0 0 0 0 0 0 0 0 0 0 0 127 0" result="hardAlpha"/>
<feOffset dy="11"/>
<feGaussianBlur stdDeviation="5"/>
<feComposite in2="hardAlpha" operator="arithmetic" k2="-1" k3="1"/>
<feColorMatrix type="matrix" values="0 0 0 0 1 0 0 0 0 1 0 0 0 0 1 0 0 0 1 0"/>
<feBlend mode="normal" in2="shape" result="effect1_innerShadow_303_726"/>
</filter>
<filter id="filter1_i_303_726" x="23" y="46.5" width="66" height="49" filterUnits="userSpaceOnUse" color-interpolation-filters="sRGB">
<feFlood flood-opacity="0" result="BackgroundImageFix"/>
<feBlend mode="normal" in="SourceGraphic" in2="BackgroundImageFix" result="shape"/>
<feColorMatrix in="SourceAlpha" type="matrix" values="0 0 0 0 0 0 0 0 0 0 0 0 0 0 0 0 0 0 127 0" result="hardAlpha"/>
<feOffset dy="11"/>
<feGaussianBlur stdDeviation="5"/>
<feComposite in2="hardAlpha" operator="arithmetic" k2="-1" k3="1"/>
<feColorMatrix type="matrix" values="0 0 0 0 1 0 0 0 0 1 0 0 0 0 1 0 0 0 1 0"/>
<feBlend mode="normal" in2="shape" result="effect1_innerShadow_303_726"/>
</filter>
<filter id="filter2_i_303_726" x="52.5" y="30" width="44" height="36.5" filterUnits="userSpaceOnUse" color-interpolation-filters="sRGB">
<feFlood flood-opacity="0" result="BackgroundImageFix"/>
<feBlend mode="normal" in="SourceGraphic" in2="BackgroundImageFix" result="shape"/>
<feColorMatrix in="SourceAlpha" type="matrix" values="0 0 0 0 0 0 0 0 0 0 0 0 0 0 0 0 0 0 127 0" result="hardAlpha"/>
<feOffset dy="11"/>
<feGaussianBlur stdDeviation="5"/>
<feComposite in2="hardAlpha" operator="arithmetic" k2="-1" k3="1"/>
<feColorMatrix type="matrix" values="0 0 0 0 1 0 0 0 0 1 0 0 0 0 1 0 0 0 1 0"/>
<feBlend mode="normal" in2="shape" result="effect1_innerShadow_303_726"/>
</filter>
<filter id="filter3_i_303_726" x="37.7899" y="31.1802" width="24.2695" height="29.509" filterUnits="userSpaceOnUse" color-interpolation-filters="sRGB">
<feFlood flood-opacity="0" result="BackgroundImageFix"/>
<feBlend mode="normal" in="SourceGraphic" in2="BackgroundImageFix" result="shape"/>
<feColorMatrix in="SourceAlpha" type="matrix" values="0 0 0 0 0 0 0 0 0 0 0 0 0 0 0 0 0 0 127 0" result="hardAlpha"/>
<feOffset dy="4"/>
<feGaussianBlur stdDeviation="4"/>
<feComposite in2="hardAlpha" operator="arithmetic" k2="-1" k3="1"/>
<feColorMatrix type="matrix" values="0 0 0 0 1 0 0 0 0 1 0 0 0 0 1 0 0 0 0.55 0"/>
<feBlend mode="normal" in2="shape" result="effect1_innerShadow_303_726"/>
</filter>
<linearGradient id="paint0_linear_303_726" x1="34.4223" y1="45.6964" x2="49.5118" y2="34.9041" gradientUnits="userSpaceOnUse">
<stop stop-color="white" stop-opacity="0.65"/>
<stop offset="1" stop-color="white" stop-opacity="0.58"/>
</linearGradient>
<linearGradient id="paint1_linear_303_726" x1="27.1979" y1="82.0179" x2="93.5604" y2="32.1619" gradientUnits="userSpaceOnUse">
<stop stop-color="white" stop-opacity="0.65"/>
<stop offset="1" stop-color="white" stop-opacity="0.58"/>
</linearGradient>
<linearGradient id="paint2_linear_303_726" x1="93.7014" y1="54.1339" x2="48.8549" y2="21.0779" gradientUnits="userSpaceOnUse">
<stop stop-color="white" stop-opacity="0.65"/>
<stop offset="1" stop-color="white" stop-opacity="0.58"/>
</linearGradient>
<linearGradient id="paint3_linear_303_726" x1="63.4051" y1="26.7298" x2="53.5931" y2="86.1418" gradientUnits="userSpaceOnUse">
<stop stop-color="#FFEE94"/>
<stop offset="1" stop-color="#FF9900"/>
</linearGradient>
</defs>
</svg>
