<svg width="120" height="120" viewBox="0 0 120 120" fill="none" xmlns="http://www.w3.org/2000/svg">
<g filter="url(#filter0_i_303_725)">
<path d="M87.2238 34.0913C87.3452 33.4018 87.4085 32.6926 87.4085 31.9687C87.4085 25.1966 81.8675 19.7068 75.0324 19.7068C69.951 19.7068 65.5848 22.7408 63.6788 27.0802C62.1347 25.7594 60.131 24.9619 57.9414 24.9619C53.0592 24.9619 49.1013 28.9268 49.1013 33.8177C49.1013 34.09 49.1136 34.3595 49.1376 34.6256C46.7893 35.7652 45.1724 38.1564 45.1724 40.9218C45.1724 44.7915 48.3387 47.9286 52.2445 47.9286H85.6405C89.5463 47.9286 92.7126 44.7915 92.7126 40.9218C92.7126 37.5913 90.3673 34.8036 87.2238 34.0913Z" fill="url(#paint0_linear_303_725)"/>
</g>
<g filter="url(#filter1_i_303_725)">
<path d="M62.0593 31.1804C55.8787 39.5721 54.807 51.0244 60.2591 60.4679C65.7113 69.9114 76.1652 74.7094 86.523 73.5526C84.3206 76.5428 81.4696 79.1444 78.0339 81.128C64.9564 88.6783 48.3601 84.4158 40.9652 71.6073C33.5702 58.7988 38.1768 42.2948 51.2544 34.7445C54.69 32.7609 58.3686 31.5926 62.0593 31.1804Z" fill="url(#paint1_linear_303_725)"/>
</g>
<g filter="url(#filter2_i_303_725)">
<path d="M58.0514 76.4995C58.1729 75.81 58.2362 75.1008 58.2362 74.3769C58.2362 67.6048 52.6952 62.115 45.86 62.115C40.7786 62.115 36.4125 65.149 34.5065 69.4884C32.9623 68.1676 30.9587 67.3701 28.7691 67.3701C23.8868 67.3701 19.9289 71.335 19.9289 76.2259C19.9289 76.4982 19.9412 76.7677 19.9652 77.0338C17.617 78.1734 16 80.5646 16 83.33C16 87.1997 19.1663 90.3368 23.0721 90.3368H56.4681C60.374 90.3368 63.5402 87.1997 63.5402 83.33C63.5402 79.9995 61.195 77.2118 58.0514 76.4995Z" fill="url(#paint2_linear_303_725)"/>
</g>
<g filter="url(#filter3_di_303_725)">
<path d="M39.7066 31.9653C36.8661 33.2267 35.7574 34.2927 34.7413 36.9307C33.932 34.3742 32.9369 33.2338 29.7759 31.9653C33.0276 30.9059 33.9101 29.6795 34.7413 27C35.7626 29.4696 36.3935 30.8173 39.7066 31.9653Z" fill="url(#paint3_linear_303_725)"/>
</g>
<g filter="url(#filter4_di_303_725)">
<path d="M85.3559 59.2468C82.5154 60.5082 81.4067 61.5742 80.3906 64.2122C79.5813 61.6557 78.5862 60.5153 75.4252 59.2468C78.6769 58.1874 79.5594 56.961 80.3906 54.2815C81.4119 56.751 82.0427 58.0988 85.3559 59.2468Z" fill="url(#paint4_linear_303_725)"/>
</g>
<g filter="url(#filter5_di_303_725)">
<path d="M27.4216 38.9609C26.2999 39.459 25.8621 39.88 25.4609 40.9217C25.1413 39.9122 24.7483 39.4619 23.5001 38.9609C24.7842 38.5426 25.1326 38.0583 25.4609 37.0002C25.8642 37.9754 26.1133 38.5076 27.4216 38.9609Z" fill="url(#paint5_linear_303_725)"/>
</g>
<defs>
<filter id="filter0_i_303_725" x="45.1724" y="19.7068" width="47.5402" height="38.2217" filterUnits="userSpaceOnUse" color-interpolation-filters="sRGB">
<feFlood flood-opacity="0" result="BackgroundImageFix"/>
<feBlend mode="normal" in="SourceGraphic" in2="BackgroundImageFix" result="shape"/>
<feColorMatrix in="SourceAlpha" type="matrix" values="0 0 0 0 0 0 0 0 0 0 0 0 0 0 0 0 0 0 127 0" result="hardAlpha"/>
<feOffset dy="11"/>
<feGaussianBlur stdDeviation="5"/>
<feComposite in2="hardAlpha" operator="arithmetic" k2="-1" k3="1"/>
<feColorMatrix type="matrix" values="0 0 0 0 1 0 0 0 0 1 0 0 0 0 1 0 0 0 1 0"/>
<feBlend mode="normal" in2="shape" result="effect1_innerShadow_303_725"/>
</filter>
<filter id="filter1_i_303_725" x="37.4368" y="31.1804" width="49.0862" height="57.6814" filterUnits="userSpaceOnUse" color-interpolation-filters="sRGB">
<feFlood flood-opacity="0" result="BackgroundImageFix"/>
<feBlend mode="normal" in="SourceGraphic" in2="BackgroundImageFix" result="shape"/>
<feColorMatrix in="SourceAlpha" type="matrix" values="0 0 0 0 0 0 0 0 0 0 0 0 0 0 0 0 0 0 127 0" result="hardAlpha"/>
<feOffset dy="4"/>
<feGaussianBlur stdDeviation="4"/>
<feComposite in2="hardAlpha" operator="arithmetic" k2="-1" k3="1"/>
<feColorMatrix type="matrix" values="0 0 0 0 1 0 0 0 0 1 0 0 0 0 1 0 0 0 0.55 0"/>
<feBlend mode="normal" in2="shape" result="effect1_innerShadow_303_725"/>
</filter>
<filter id="filter2_i_303_725" x="16" y="62.115" width="47.5402" height="38.2217" filterUnits="userSpaceOnUse" color-interpolation-filters="sRGB">
<feFlood flood-opacity="0" result="BackgroundImageFix"/>
<feBlend mode="normal" in="SourceGraphic" in2="BackgroundImageFix" result="shape"/>
<feColorMatrix in="SourceAlpha" type="matrix" values="0 0 0 0 0 0 0 0 0 0 0 0 0 0 0 0 0 0 127 0" result="hardAlpha"/>
<feOffset dy="11"/>
<feGaussianBlur stdDeviation="5"/>
<feComposite in2="hardAlpha" operator="arithmetic" k2="-1" k3="1"/>
<feColorMatrix type="matrix" values="0 0 0 0 1 0 0 0 0 1 0 0 0 0 1 0 0 0 1 0"/>
<feBlend mode="normal" in2="shape" result="effect1_innerShadow_303_725"/>
</filter>
<filter id="filter3_di_303_725" x="21.0085" y="24.2326" width="27.4656" height="27.4656" filterUnits="userSpaceOnUse" color-interpolation-filters="sRGB">
<feFlood flood-opacity="0" result="BackgroundImageFix"/>
<feColorMatrix in="SourceAlpha" type="matrix" values="0 0 0 0 0 0 0 0 0 0 0 0 0 0 0 0 0 0 127 0" result="hardAlpha"/>
<feOffset dy="6"/>
<feGaussianBlur stdDeviation="4.38372"/>
<feColorMatrix type="matrix" values="0 0 0 0 0.278813 0 0 0 0 0.232917 0 0 0 0 0.5375 0 0 0 1 0"/>
<feBlend mode="normal" in2="BackgroundImageFix" result="effect1_dropShadow_303_725"/>
<feBlend mode="normal" in="SourceGraphic" in2="effect1_dropShadow_303_725" result="shape"/>
<feColorMatrix in="SourceAlpha" type="matrix" values="0 0 0 0 0 0 0 0 0 0 0 0 0 0 0 0 0 0 127 0" result="hardAlpha"/>
<feOffset dy="4"/>
<feGaussianBlur stdDeviation="2"/>
<feComposite in2="hardAlpha" operator="arithmetic" k2="-1" k3="1"/>
<feColorMatrix type="matrix" values="0 0 0 0 1 0 0 0 0 1 0 0 0 0 1 0 0 0 0.44 0"/>
<feBlend mode="normal" in2="shape" result="effect2_innerShadow_303_725"/>
</filter>
<filter id="filter4_di_303_725" x="66.6578" y="51.514" width="27.4656" height="27.4656" filterUnits="userSpaceOnUse" color-interpolation-filters="sRGB">
<feFlood flood-opacity="0" result="BackgroundImageFix"/>
<feColorMatrix in="SourceAlpha" type="matrix" values="0 0 0 0 0 0 0 0 0 0 0 0 0 0 0 0 0 0 127 0" result="hardAlpha"/>
<feOffset dy="6"/>
<feGaussianBlur stdDeviation="4.38372"/>
<feColorMatrix type="matrix" values="0 0 0 0 0.278813 0 0 0 0 0.232917 0 0 0 0 0.5375 0 0 0 1 0"/>
<feBlend mode="normal" in2="BackgroundImageFix" result="effect1_dropShadow_303_725"/>
<feBlend mode="normal" in="SourceGraphic" in2="effect1_dropShadow_303_725" result="shape"/>
<feColorMatrix in="SourceAlpha" type="matrix" values="0 0 0 0 0 0 0 0 0 0 0 0 0 0 0 0 0 0 127 0" result="hardAlpha"/>
<feOffset dy="4"/>
<feGaussianBlur stdDeviation="2"/>
<feComposite in2="hardAlpha" operator="arithmetic" k2="-1" k3="1"/>
<feColorMatrix type="matrix" values="0 0 0 0 1 0 0 0 0 1 0 0 0 0 1 0 0 0 0.44 0"/>
<feBlend mode="normal" in2="shape" result="effect2_innerShadow_303_725"/>
</filter>
<filter id="filter5_di_303_725" x="14.7327" y="34.2328" width="21.4564" height="21.4563" filterUnits="userSpaceOnUse" color-interpolation-filters="sRGB">
<feFlood flood-opacity="0" result="BackgroundImageFix"/>
<feColorMatrix in="SourceAlpha" type="matrix" values="0 0 0 0 0 0 0 0 0 0 0 0 0 0 0 0 0 0 127 0" result="hardAlpha"/>
<feOffset dy="6"/>
<feGaussianBlur stdDeviation="4.38372"/>
<feColorMatrix type="matrix" values="0 0 0 0 0.278813 0 0 0 0 0.232917 0 0 0 0 0.5375 0 0 0 1 0"/>
<feBlend mode="normal" in2="BackgroundImageFix" result="effect1_dropShadow_303_725"/>
<feBlend mode="normal" in="SourceGraphic" in2="effect1_dropShadow_303_725" result="shape"/>
<feColorMatrix in="SourceAlpha" type="matrix" values="0 0 0 0 0 0 0 0 0 0 0 0 0 0 0 0 0 0 127 0" result="hardAlpha"/>
<feOffset dy="4"/>
<feGaussianBlur stdDeviation="2"/>
<feComposite in2="hardAlpha" operator="arithmetic" k2="-1" k3="1"/>
<feColorMatrix type="matrix" values="0 0 0 0 1 0 0 0 0 1 0 0 0 0 1 0 0 0 0.44 0"/>
<feBlend mode="normal" in2="shape" result="effect2_innerShadow_303_725"/>
</filter>
<linearGradient id="paint0_linear_303_725" x1="48.1961" y1="45.4088" x2="96.1563" y2="9.54359" gradientUnits="userSpaceOnUse">
<stop stop-color="white"/>
<stop offset="1" stop-color="white" stop-opacity="0.58"/>
</linearGradient>
<linearGradient id="paint1_linear_303_725" x1="63.4052" y1="26.7301" x2="53.5932" y2="86.1421" gradientUnits="userSpaceOnUse">
<stop stop-color="#FFEE94"/>
<stop offset="1" stop-color="#FF9900"/>
</linearGradient>
<linearGradient id="paint2_linear_303_725" x1="19.0237" y1="87.817" x2="66.984" y2="51.9518" gradientUnits="userSpaceOnUse">
<stop stop-color="white"/>
<stop offset="1" stop-color="white" stop-opacity="0.58"/>
</linearGradient>
<linearGradient id="paint3_linear_303_725" x1="33.3048" y1="37.396" x2="37.9782" y2="28.6214" gradientUnits="userSpaceOnUse">
<stop stop-color="#FF9900"/>
<stop offset="1" stop-color="#FFEE94"/>
</linearGradient>
<linearGradient id="paint4_linear_303_725" x1="78.9541" y1="64.6774" x2="83.6275" y2="55.9029" gradientUnits="userSpaceOnUse">
<stop stop-color="#FF9900"/>
<stop offset="1" stop-color="#FFEE94"/>
</linearGradient>
<linearGradient id="paint5_linear_303_725" x1="24.8936" y1="41.1054" x2="26.7391" y2="37.6404" gradientUnits="userSpaceOnUse">
<stop stop-color="#FF9900"/>
<stop offset="1" stop-color="#FFEE94"/>
</linearGradient>
</defs>
</svg>
